<svg width="24" height="24" viewBox="0 0 24 24" fill="none" xmlns="http://www.w3.org/2000/svg">
<rect x="0.5" y="0.5" width="23" height="23" rx="7.5" fill="#F7F7F7"/>
<rect x="0.5" y="0.5" width="23" height="23" rx="7.5" stroke="#D4D4D4"/>
<path d="M18.0675 17.1828C18.1256 17.2409 18.1717 17.3098 18.2031 17.3857C18.2345 17.4616 18.2507 17.5429 18.2507 17.625C18.2507 17.7071 18.2345 17.7885 18.2031 17.8643C18.1717 17.9402 18.1256 18.0091 18.0675 18.0672C18.0095 18.1253 17.9405 18.1713 17.8647 18.2028C17.7888 18.2342 17.7075 18.2504 17.6253 18.2504C17.5432 18.2504 17.4619 18.2342 17.386 18.2028C17.3102 18.1713 17.2412 18.1253 17.1832 18.0672L12.0003 12.8836L6.81753 18.0672C6.70026 18.1845 6.5412 18.2504 6.37535 18.2504C6.2095 18.2504 6.05044 18.1845 5.93316 18.0672C5.81588 17.9499 5.75 17.7909 5.75 17.625C5.75 17.4592 5.81588 17.3001 5.93316 17.1828L11.1168 12L5.93316 6.8172C5.81588 6.69992 5.75 6.54086 5.75 6.37501C5.75 6.20916 5.81588 6.0501 5.93316 5.93282C6.05044 5.81555 6.2095 5.74966 6.37535 5.74966C6.5412 5.74966 6.70026 5.81555 6.81753 5.93282L12.0003 11.1164L17.1832 5.93282C17.3004 5.81555 17.4595 5.74966 17.6253 5.74966C17.7912 5.74966 17.9503 5.81555 18.0675 5.93282C18.1848 6.0501 18.2507 6.20916 18.2507 6.37501C18.2507 6.54086 18.1848 6.69992 18.0675 6.8172L12.8839 12L18.0675 17.1828Z" fill="black"/>
</svg>
