<svg width="20" height="20" viewBox="0 0 20 20" fill="none" xmlns="http://www.w3.org/2000/svg">
<path d="M19.2191 9.99999C19.2232 11.4544 18.7513 12.8702 17.8753 14.0312C17.8384 14.0805 17.7921 14.122 17.7391 14.1533C17.6862 14.1847 17.6275 14.2053 17.5666 14.214C17.5057 14.2227 17.4436 14.2194 17.384 14.2041C17.3243 14.1888 17.2683 14.1619 17.2191 14.125C17.1698 14.0881 17.1283 14.0418 17.097 13.9888C17.0656 13.9358 17.045 13.8772 17.0363 13.8163C17.0276 13.7553 17.0309 13.6933 17.0462 13.6337C17.0615 13.574 17.0884 13.518 17.1253 13.4687C17.6749 12.7359 18.0426 11.8829 18.1979 10.9802C18.3532 10.0774 18.2917 9.15059 18.0186 8.27621C17.7454 7.40183 17.2684 6.60487 16.6269 5.95101C15.9853 5.29714 15.1975 4.8051 14.3285 4.51542C13.4595 4.22574 12.534 4.14671 11.6284 4.28486C10.7229 4.42301 9.86309 4.77437 9.11995 5.31C8.37681 5.84562 7.77159 6.55017 7.35416 7.36559C6.93674 8.181 6.71906 9.08394 6.71906 9.99999C6.71906 10.1243 6.66967 10.2435 6.58176 10.3314C6.49385 10.4194 6.37463 10.4687 6.25031 10.4687C6.12598 10.4687 6.00676 10.4194 5.91885 10.3314C5.83094 10.2435 5.78156 10.1243 5.78156 9.99999C5.78097 9.32064 5.88398 8.64517 6.08702 7.99687C5.9338 7.9785 5.77963 7.96911 5.62531 7.96874C4.5893 7.96874 3.59573 8.38029 2.86317 9.11286C2.13061 9.84542 1.71905 10.839 1.71905 11.875C1.71905 12.911 2.13061 13.9046 2.86317 14.6371C3.59573 15.3697 4.5893 15.7812 5.62531 15.7812H7.50031C7.62463 15.7812 7.74385 15.8306 7.83176 15.9185C7.91967 16.0064 7.96906 16.1257 7.96906 16.25C7.96906 16.3743 7.91967 16.4935 7.83176 16.5814C7.74385 16.6694 7.62463 16.7187 7.50031 16.7187H5.62531C4.95489 16.7185 4.29182 16.5791 3.67807 16.3094C3.06432 16.0396 2.51324 15.6454 2.05972 15.1517C1.6062 14.658 1.26011 14.0755 1.04335 13.441C0.826599 12.8066 0.7439 12.1341 0.800491 11.4661C0.857082 10.7981 1.05173 10.1491 1.37212 9.5602C1.6925 8.97129 2.13165 8.45531 2.66176 8.04491C3.19188 7.6345 3.80142 7.33861 4.4518 7.17596C5.10218 7.01331 5.77925 6.98744 6.44015 7.09999C7.0979 5.72598 8.20305 4.61627 9.57434 3.95288C10.9456 3.28948 12.5017 3.11177 13.9872 3.44889C15.4728 3.78602 16.7997 4.61797 17.7503 5.8083C18.7009 6.99862 19.2188 8.47666 19.2191 9.99999ZM14.0441 13.4187L12.3441 15.118V9.99999C12.3441 9.87567 12.2947 9.75644 12.2068 9.66854C12.1189 9.58063 11.9996 9.53124 11.8753 9.53124C11.751 9.53124 11.6318 9.58063 11.5438 9.66854C11.4559 9.75644 11.4066 9.87567 11.4066 9.99999V15.118L9.70655 13.4187C9.6177 13.3359 9.50017 13.2909 9.37873 13.293C9.25729 13.2952 9.14143 13.3443 9.05554 13.4302C8.96966 13.5161 8.92046 13.632 8.91832 13.7534C8.91618 13.8749 8.96126 13.9924 9.04405 14.0812L11.5441 16.5812C11.6319 16.669 11.7511 16.7183 11.8753 16.7183C11.9995 16.7183 12.1187 16.669 12.2066 16.5812L14.7066 14.0812C14.7894 13.9924 14.8344 13.8749 14.8323 13.7534C14.8301 13.632 14.781 13.5161 14.6951 13.4302C14.6092 13.3443 14.4933 13.2952 14.3719 13.293C14.2504 13.2909 14.1329 13.3359 14.0441 13.4187Z" fill="#F1F9FF"/>
</svg>
