<svg width="20" height="20" viewBox="0 0 20 20" fill="none" xmlns="http://www.w3.org/2000/svg">
<path d="M18.7882 4.96175C18.7011 4.87435 18.5976 4.805 18.4836 4.75768C18.3696 4.71036 18.2475 4.68601 18.1241 4.68601C18.0007 4.68601 17.8785 4.71036 17.7646 4.75768C17.6506 4.805 17.5471 4.87435 17.46 4.96175L14.9999 7.4219L12.578 5.00003L15.0405 2.53831C15.2166 2.36219 15.3156 2.12332 15.3156 1.87425C15.3156 1.62517 15.2166 1.3863 15.0405 1.21018C14.8644 1.03406 14.6255 0.93512 14.3764 0.93512C14.1274 0.93512 13.8885 1.03406 13.7124 1.21018L11.2499 3.6719L9.41315 1.83675C9.32594 1.74954 9.22242 1.68036 9.10848 1.63317C8.99453 1.58597 8.87241 1.56168 8.74909 1.56168C8.50001 1.56168 8.26114 1.66063 8.08502 1.83675C7.9089 2.01287 7.80996 2.25174 7.80996 2.50081C7.80996 2.74988 7.9089 2.98875 8.08502 3.16487L8.35924 3.43753L4.4444 7.35471C4.12514 7.67392 3.87189 8.05289 3.69911 8.46998C3.52633 8.88707 3.4374 9.33411 3.4374 9.78557C3.4374 10.237 3.52633 10.6841 3.69911 11.1012C3.87189 11.5183 4.12514 11.8972 4.4444 12.2164L5.45065 13.2227L1.83659 16.8367C1.74938 16.924 1.68021 17.0275 1.63301 17.1414C1.58581 17.2554 1.56152 17.3775 1.56152 17.5008C1.56152 17.6241 1.58581 17.7463 1.63301 17.8602C1.68021 17.9741 1.74938 18.0777 1.83659 18.1649C2.01271 18.341 2.25158 18.4399 2.50065 18.4399C2.62398 18.4399 2.7461 18.4156 2.86004 18.3684C2.97398 18.3213 3.07751 18.2521 3.16471 18.1649L6.77877 14.5508L7.78502 15.5571C8.10423 15.8763 8.4832 16.1296 8.90029 16.3023C9.31738 16.4751 9.76442 16.5641 10.2159 16.5641C10.6673 16.5641 11.1144 16.4751 11.5315 16.3023C11.9486 16.1296 12.3275 15.8763 12.6467 15.5571L16.5624 11.6407L16.8366 11.9157C16.9238 12.0029 17.0273 12.072 17.1413 12.1192C17.2552 12.1664 17.3773 12.1907 17.5006 12.1907C17.624 12.1907 17.7461 12.1664 17.86 12.1192C17.974 12.072 18.0775 12.0029 18.1647 11.9157C18.2519 11.8284 18.3211 11.7249 18.3683 11.611C18.4155 11.497 18.4398 11.3749 18.4398 11.2516C18.4398 11.1283 18.4155 11.0061 18.3683 10.8922C18.3211 10.7783 18.2519 10.6747 18.1647 10.5875L16.328 8.75003L18.7905 6.28831C18.8775 6.20109 18.9465 6.09757 18.9935 5.98367C19.0404 5.86978 19.0645 5.74774 19.0643 5.62454C19.0641 5.50134 19.0396 5.37939 18.9922 5.26566C18.9448 5.15193 18.8755 5.04866 18.7882 4.96175ZM11.3194 14.2297C11.1743 14.3749 11.002 14.49 10.8124 14.5686C10.6228 14.6471 10.4196 14.6876 10.2143 14.6876C10.0091 14.6876 9.80585 14.6471 9.61623 14.5686C9.42662 14.49 9.25434 14.3749 9.10924 14.2297L5.77018 10.8907C5.62502 10.7456 5.50987 10.5733 5.43131 10.3837C5.35275 10.1941 5.31231 9.99082 5.31231 9.78557C5.31231 9.58033 5.35275 9.3771 5.43131 9.18748C5.50987 8.99787 5.62502 8.8256 5.77018 8.6805L9.68737 4.76565L15.2342 10.3125L11.3194 14.2297Z" fill="#454545"/>
</svg>
