<svg width="20" height="20" viewBox="0 0 20 20" fill="none" xmlns="http://www.w3.org/2000/svg">
<path d="M17.8125 3.75001V7.50001C17.8125 7.74865 17.7137 7.98711 17.5379 8.16292C17.3621 8.33874 17.1236 8.43751 16.875 8.43751H13.125C12.8764 8.43751 12.6379 8.33874 12.4621 8.16292C12.2863 7.98711 12.1875 7.74865 12.1875 7.50001C12.1875 7.25137 12.2863 7.01291 12.4621 6.8371C12.6379 6.66128 12.8764 6.56251 13.125 6.56251H14.6094L14 5.95314C12.8967 4.8444 11.3985 4.21891 9.83437 4.21407H9.80078C8.25063 4.21068 6.76146 4.81774 5.65547 5.90392C5.47769 6.07776 5.23814 6.17386 4.9895 6.17107C4.74087 6.16829 4.50353 6.06685 4.32969 5.88907C4.15585 5.71129 4.05975 5.47174 4.06253 5.22311C4.06531 4.97448 4.16675 4.73713 4.34453 4.56329C5.80095 3.13318 7.76196 2.33412 9.80313 2.33907H9.84375C11.9029 2.34469 13.8756 3.16776 15.3281 4.62735L15.9375 5.23439V3.75001C15.9375 3.50137 16.0363 3.26291 16.2121 3.0871C16.3879 2.91128 16.6264 2.81251 16.875 2.81251C17.1236 2.81251 17.3621 2.91128 17.5379 3.0871C17.7137 3.26291 17.8125 3.50137 17.8125 3.75001ZM14.3445 14.0961C13.238 15.1828 11.7478 15.79 10.1969 15.7859H10.1633C8.59916 15.7811 7.10092 15.1556 5.99766 14.0469L5.39062 13.4375H6.875C7.12364 13.4375 7.3621 13.3387 7.53791 13.1629C7.71373 12.9871 7.8125 12.7487 7.8125 12.5C7.8125 12.2514 7.71373 12.0129 7.53791 11.8371C7.3621 11.6613 7.12364 11.5625 6.875 11.5625H3.125C2.87636 11.5625 2.6379 11.6613 2.46209 11.8371C2.28627 12.0129 2.1875 12.2514 2.1875 12.5V16.25C2.1875 16.4987 2.28627 16.7371 2.46209 16.9129C2.6379 17.0887 2.87636 17.1875 3.125 17.1875C3.37364 17.1875 3.6121 17.0887 3.78791 16.9129C3.96373 16.7371 4.0625 16.4987 4.0625 16.25V14.7656L4.67188 15.375C6.12478 16.8337 8.09741 17.656 10.1562 17.6609H10.2C12.2412 17.6659 14.2022 16.8668 15.6586 15.4367C15.7466 15.3507 15.8168 15.2481 15.8652 15.1349C15.9136 15.0217 15.9392 14.9 15.9406 14.7769C15.942 14.6538 15.9191 14.5316 15.8733 14.4174C15.8274 14.3031 15.7595 14.199 15.6734 14.1109C15.5874 14.0229 15.4848 13.9527 15.3716 13.9043C15.2584 13.8559 15.1367 13.8303 15.0136 13.8289C14.8905 13.8276 14.7683 13.8505 14.6541 13.8963C14.5398 13.9421 14.4357 14.01 14.3477 14.0961H14.3445Z" fill="#454545"/>
</svg>
